<?xml version="1.0" standalone="no"?>
<!DOCTYPE svg PUBLIC "-//W3C//DTD SVG 20010904//EN"
 "http://www.w3.org/TR/2001/REC-SVG-20010904/DTD/svg10.dtd">
<svg version="1.0" xmlns="http://www.w3.org/2000/svg"
 width="512.000000pt" height="200.000000pt" viewBox="0 0 512.000000 200.000000"
 preserveAspectRatio="xMidYMid meet">
<metadata>
Created by potrace 1.16, written by Peter Selinger 2001-2019
</metadata>
<g transform="translate(0.000000,200.000000) scale(0.100000,-0.100000)"
fill="#000000" stroke="none">
<path d="M403 1981 c-70 -26 -136 -73 -176 -126 -19 -24 -53 -59 -77 -77 -24
-18 -60 -58 -81 -88 -72 -104 -70 -83 -67 -780 l3 -625 29 -60 c37 -74 113
-151 191 -190 l60 -30 600 0 600 0 60 29 c36 18 81 52 112 85 29 31 60 63 68
71 98 94 124 124 150 175 l30 60 0 645 0 645 -29 60 c-37 74 -113 151 -191
190 l-60 30 -585 2 c-551 2 -588 1 -637 -16z m1198 -204 c24 -13 58 -43 74
-66 l30 -43 3 -587 3 -587 -24 -44 c-13 -25 -43 -58 -66 -75 l-43 -30 -542 -3
-542 -3 -44 24 c-25 13 -58 43 -75 66 l-30 43 -3 585 c-3 580 -2 586 19 629
22 47 65 85 114 102 19 7 217 11 556 11 l526 1 44 -23z"/>
<path d="M940 1368 c-105 -30 -158 -140 -114 -234 23 -48 62 -73 178 -114 79
-28 103 -41 115 -62 14 -25 14 -29 -5 -55 -18 -23 -30 -28 -74 -31 -43 -3 -59
2 -91 23 -22 14 -39 29 -39 33 0 4 -7 15 -14 25 -14 18 -16 17 -58 -4 -23 -12
-45 -23 -47 -25 -7 -6 41 -74 71 -99 46 -39 97 -57 163 -58 81 -1 127 16 169
63 42 46 50 74 43 138 -8 69 -56 110 -180 151 -108 36 -127 50 -127 90 0 48
51 77 115 65 34 -6 87 -46 96 -72 3 -10 15 -8 52 8 26 12 47 24 47 29 0 12
-45 70 -73 91 -57 45 -149 61 -227 38z"/>
<path d="M2403 1950 c-58 -12 -95 -33 -131 -74 -66 -75 -68 -192 -5 -266 33
-39 94 -70 207 -104 130 -40 167 -89 113 -152 -18 -20 -35 -28 -74 -31 -71 -7
-136 24 -172 83 -14 24 -30 43 -36 44 -5 0 -34 -11 -63 -25 l-53 -25 27 -51
c34 -61 71 -94 144 -127 121 -56 287 -21 353 74 39 56 47 134 19 197 -28 64
-83 100 -216 142 -141 45 -179 83 -146 146 41 75 188 58 241 -28 11 -18 25
-33 30 -33 6 0 81 32 107 46 2 1 -6 20 -17 41 -54 107 -199 170 -328 143z"/>
<path d="M3613 1950 c-81 -19 -143 -91 -143 -167 0 -33 0 -33 -50 -33 l-51 0
3 -62 3 -63 48 -3 47 -3 0 -205 0 -204 65 0 65 0 0 205 0 205 60 0 60 0 0 65
0 65 -61 0 c-58 0 -60 1 -53 23 12 41 35 57 81 57 l43 0 0 59 c0 52 -2 59 -22
65 -28 7 -53 6 -95 -4z"/>
<path d="M3000 1751 c-67 -21 -150 -90 -150 -126 0 -8 22 -26 50 -40 l50 -25
33 36 c26 29 42 37 79 41 42 5 50 3 78 -25 28 -28 40 -62 23 -62 -39 0 -205
-35 -237 -49 -95 -42 -128 -140 -80 -233 16 -31 70 -62 127 -72 49 -9 138 9
171 35 l26 20 0 -20 c0 -19 6 -21 65 -21 l65 0 0 209 c0 200 -1 209 -23 242
-53 79 -178 120 -277 90z m164 -343 c-10 -47 -30 -74 -69 -92 -64 -31 -125
-10 -125 43 0 38 20 52 93 67 104 20 110 19 101 -18z"/>
<path d="M3945 1744 c-55 -19 -109 -66 -142 -121 -22 -37 -28 -62 -31 -130 -4
-78 -2 -88 27 -147 43 -87 98 -129 196 -147 103 -19 226 27 268 99 l18 32 -56
27 c-50 25 -58 26 -68 13 -40 -54 -141 -69 -191 -29 -26 20 -56 68 -56 89 0 6
66 10 196 10 l197 0 -5 68 c-6 80 -29 133 -80 184 -62 62 -181 85 -273 52z
m159 -119 c24 -16 53 -71 44 -81 -3 -2 -57 -3 -121 -2 l-116 3 15 30 c8 17 27
38 42 48 34 21 105 22 136 2z"/>
<path d="M2293 1060 c-58 -12 -95 -33 -131 -74 -66 -75 -68 -192 -5 -266 33
-39 94 -70 207 -104 130 -40 167 -89 113 -152 -18 -20 -35 -28 -74 -31 -71 -7
-136 24 -172 83 -14 24 -30 43 -36 44 -5 0 -34 -11 -63 -25 l-53 -25 27 -51
c34 -61 71 -94 144 -127 121 -56 287 -21 353 74 39 56 47 134 19 197 -28 64
-83 100 -216 142 -141 45 -179 83 -146 146 41 75 188 58 241 -28 11 -18 25
-33 30 -33 6 0 81 32 107 46 2 1 -6 20 -17 41 -54 107 -199 170 -328 143z"/>
<path d="M2955 858 c-16 -6 -42 -20 -57 -30 l-28 -19 0 25 c0 25 -2 26 -65 26
l-65 0 0 -370 0 -370 70 0 70 0 0 116 c0 64 3 114 8 112 88 -46 184 -55 253
-26 127 55 196 210 155 350 -19 65 -79 139 -140 170 -48 25 -156 33 -201 16z
m142 -138 c43 -26 67 -74 67 -135 1 -155 -183 -212 -265 -83 -16 26 -19 46
-17 93 4 65 23 101 68 129 35 22 108 20 147 -4z"/>
<path d="M3537 854 c-52 -16 -137 -91 -137 -119 0 -9 22 -26 53 -40 l52 -25
19 25 c38 52 102 68 156 40 25 -13 50 -58 39 -70 -2 -2 -55 -12 -118 -23 -176
-32 -227 -78 -219 -193 7 -97 65 -142 184 -142 60 0 79 4 118 27 44 26 46 26
46 6 0 -18 6 -20 66 -20 l65 0 -3 208 c-3 207 -3 209 -30 249 -51 77 -183 112
-291 77z m183 -328 c0 -12 -10 -38 -23 -57 -55 -82 -195 -72 -174 13 7 28 36
43 107 57 78 15 90 14 90 -13z"/>
<path d="M4150 861 c-89 -29 -147 -80 -183 -160 -25 -56 -21 -186 8 -245 66
-135 238 -191 379 -122 56 28 116 91 116 123 0 12 -109 70 -114 61 -29 -48
-44 -62 -74 -75 -69 -29 -142 -1 -178 69 -19 36 -18 112 2 154 43 90 181 99
232 15 l18 -29 51 22 c64 27 66 29 58 55 -11 37 -56 81 -109 108 -54 28 -158
40 -206 24z"/>
<path d="M4731 859 c-158 -48 -235 -244 -160 -404 24 -52 82 -108 136 -131 59
-25 176 -23 235 5 49 24 108 81 108 105 0 7 -23 23 -51 36 -51 21 -51 21 -73
2 -34 -31 -62 -42 -106 -42 -59 0 -98 24 -120 73 l-19 42 194 3 195 2 0 63
c-1 102 -49 185 -135 229 -46 24 -152 33 -204 17z m147 -125 c19 -13 52 -63
52 -79 0 -3 -54 -5 -120 -5 -137 0 -146 6 -86 66 29 29 41 34 83 34 28 0 58
-7 71 -16z"/>
</g>
</svg>
